#tb 0: 1/22050
#media_type 0: audio
#codec_id 0: pcm_s16le
#sample_rate 0: 22050
#channel_layout 0: 4
0,          0,          0,     2048,     4096, 0x4cd2fbdf
0,       2048,       2048,     2048,     4096, 0x233cfca2
0,       4096,       4096,     2048,     4096, 0xf43af2b0
0,       6144,       6144,     2048,     4096, 0xea6eff9f
0,       8192,       8192,     2048,     4096, 0xa5ecf6a0
0,      10240,      10240,     2048,     4096, 0x40d4f3b1
0,      12288,      12288,     2048,     4096, 0x6b2bf76b
0,      14336,      14336,     2048,     4096, 0xf19df862
0,      16384,      16384,     2048,     4096, 0x736ef763
0,      18432,      18432,     2048,     4096, 0x93b6f640
